PathFileType	4	(X/Y/Z)	/Users/niels/Desktop/University/Third Semester/Perception and Action/Exam/Gymnastics Motion Tracking/Code for Gym Tracking/Scripts/Analyzed Data/Start Salto/st_salto_good_id13_1_Sports2D/st_salto_good_id13_1_Sports2D_px_person00.trc
DataRate	CameraRate	NumFrames	NumMarkers	Units	OrigDataRate	OrigDataStartFrame	OrigNumFrames
29.82456140350877	29.82456140350877	8	22	m	29.82456140350877	0	171
Frame#	Time	Hip			RHip			RKnee			RAnkle			RBigToe			RSmallToe			RHeel			LHip			LKnee			LAnkle			LBigToe			LSmallToe			LHeel			Neck			Head			Nose			RShoulder			RElbow			RWrist			LShoulder			LElbow			LWrist		
		X1	Y1	Z1	X2	Y2	Z2	X3	Y3	Z3	X4	Y4	Z4	X5	Y5	Z5	X6	Y6	Z6	X7	Y7	Z7	X8	Y8	Z8	X9	Y9	Z9	X10	Y10	Z10	X11	Y11	Z11	X12	Y12	Z12	X13	Y13	Z13	X14	Y14	Z14	X15	Y15	Z15	X16	Y16	Z16	X17	Y17	Z17	X18	Y18	Z18	X19	Y19	Z19	X20	Y20	Z20	X21	Y21	Z21	X22	Y22	Z22
0	0.0	0.0008168117805547038	-0.5603178155843064	0.0	0.0014954295958209335	-0.5617779529020752	0.0	0.04453355831008232	-0.6179683749745976	0.0	0.05534049822926274	-0.7540714453157483	0.0	0.11215203503482474	-0.7621646871863972	0.0	0.10338442730471416	-0.7679747314422739	0.0	0.045192104045779544	-0.7737308108568287	0.0	0.0008743404650215074	-0.5595919613159073	0.0	0.04393579414793654	-0.619354427425595	0.0	0.05566644354846178	-0.7533491619473334	0.0	0.11246933383119073	-0.7642566814664479	0.0	0.10883324174508434	-0.7620698191260583	0.0	0.044032507557020116	-0.7715621732028185	0.0	-0.006666273766507076	-0.3572405498526815	0.0	0.014852030920959878	-0.27896984092702065	0.0	0.022530167611782677	-0.3296283347070973	0.0	0.008098346034765171	-0.47858849898789674	0.0	0.0009728150352617461	-0.45231544745797725	0.0	0.005381480022660415	-0.5521852042522168	0.0	0.00532177090944359	-0.5687512402074621	0.0	0.008758393859619856	-0.4615808280057001	0.0	0.006177569216772819	-0.55304924858587	0.0
1	0.033529411764705884	0.0008937598195233005	-0.5603456176220664	0.0	0.0015590317938935954	-0.5617942588662487	0.0	0.044596689494828486	-0.617961176623648	0.0	0.05538552410238253	-0.7540966140083819	0.0	0.11216978903614526	-0.7621748659109816	0.0	0.1034264635135628	-0.7680026940905522	0.0	0.04517410264963451	-0.7737456907199078	0.0	0.0009478389731565279	-0.5596050131045254	0.0	0.04397305489030892	-0.6193644037506961	0.0	0.05568216092845406	-0.7533565677875657	0.0	0.11248741304260933	-0.764272712863097	0.0	0.10884956987421417	-0.7620852357629078	0.0	0.044042183046899844	-0.7715649033568078	0.0	-0.006563059196326801	-0.3572541764252776	0.0	0.01496530783356978	-0.278984325580671	0.0	0.022637863169317676	-0.3296435995276752	0.0	0.008204662349546896	-0.4786830458258041	0.0	0.0010975693418455786	-0.45231485596144655	0.0	0.005506567627318174	-0.5522642116263726	0.0	0.0054137486401350686	-0.5689425131752562	0.0	0.008885380060095854	-0.4615875637603687	0.0	0.006298717385771088	-0.5530704498828348	0.0
2	0.06705882352941177	0.000952506920823019	-0.5604318534185032	0.0	0.0016266475386682703	-0.5618578504842783	0.0	0.04461882197415824	-0.6179105298137645	0.0	0.0554524921051589	-0.754161656731604	0.0	0.11218591564251792	-0.7621598482321859	0.0	0.10350383249447857	-0.7680298344173245	0.0	0.04509831984221839	-0.7737956641099196	0.0	0.0009628817201202768	-0.5596635581871651	0.0	0.04386410281360041	-0.6193902510328596	0.0	0.05548423808045667	-0.7533862569305967	0.0	0.1122967176606593	-0.7643287778580584	0.0	0.10865223577415546	-0.7621414920742053	0.0	0.04382122198657534	-0.7715827523416513	0.0	-0.006519473192268369	-0.35727232858088415	0.0	0.01500291910741093	-0.27901386128959815	0.0	0.022661668659103913	-0.3296598035926925	0.0	0.008316328301902355	-0.4789915919367969	0.0	0.0012008453845559033	-0.4523466712713897	0.0	0.00552310116572464	-0.5525203001351568	0.0	0.0054107440924650585	-0.5695180447573078	0.0	0.008918442870921913	-0.461593881553312	0.0	0.00626397470004302	-0.5531355630583603	0.0
3	0.10058823529411764	0.000928763680371711	-0.5606032766797375	0.0	0.001659790045704587	-0.5619944246051619	0.0	0.04452716973111008	-0.6177877348306612	0.0	0.05552884173290501	-0.7542807790219926	0.0	0.11218755903570897	-0.7620936090539283	0.0	0.10361622311518705	-0.7680372428577692	0.0	0.04493209743543563	-0.7738979862606693	0.0	0.0008264846181941009	-0.5597940424188326	0.0	0.04347216915222987	-0.6194376505936793	0.0	0.054898146996080366	-0.7534505209051348	0.0	0.1117249167858553	-0.7644451771154461	0.0	0.10806629531486772	-0.7622599102933545	0.0	0.04318597814338152	-0.7716255595588677	0.0	-0.00664882496223274	-0.3572895789679322	0.0	0.014832648545819262	-0.2790605522081193	0.0	0.02246669279847955	-0.3296676914250404	0.0	0.00836796495170318	-0.4796168689519109	0.0	0.0011845862338709069	-0.45243619557470743	0.0	0.005265858720174729	-0.5530379744835476	0.0	0.0051796115810181925	-0.5706482448612765	0.0	0.008702367999230496	-0.4615950573227056	0.0	0.005874299897103327	-0.5532644913216345	0.0
4	0.13411764705882354	0.0007207093448294643	-0.5608690160793467	0.0	0.0015877590614157499	-0.5622185272726868	0.0	0.04421978427830889	-0.6175704259296613	0.0	0.055578013376637064	-0.7544530451479914	0.0	0.11215304308406777	-0.7619465834349944	0.0	0.1037399903376445	-0.7679920089636274	0.0	0.04465543629083603	-0.7740602405580896	0.0	0.0004123825995568481	-0.5600135082602028	0.0	0.04265090184587586	-0.6195062779725775	0.0	0.05375481849073089	-0.7535565363059555	0.0	0.11060364721853563	-0.7646316518943662	0.0	0.1069219576409463	-0.7624515117907814	0.0	0.04196236304805708	-0.7717008471302971	0.0	-0.007112564821718767	-0.357293369409776	0.0	0.014270084817946203	-0.27911828236395714	0.0	0.021869168229574302	-0.3296502776687238	0.0	0.008240430880470327	-0.4806007152544493	0.0	0.0008893840459599511	-0.45260700214032545	0.0	0.00451354419540554	-0.5538509635311659	0.0	0.004546921669880832	-0.5723833764694306	0.0	0.00802399810543733	-0.461583008165256	0.0	0.004879516886918872	-0.5534637379233979	0.0
5	0.16764705882352943	0.00020215803705934374	-0.5611895373464294	0.0	0.0013080302081609023	-0.5625081842391716	0.0	0.04359070886419799	-0.6172662002329898	0.0	0.05552920688515194	-0.7546414517172358	0.0	0.1120534929536103	-0.761699955907322	0.0	0.10381041860523843	-0.7678488169319705	0.0	0.04429207556743592	-0.7742616238570847	0.0	-0.000403780499114376	-0.5603050791905171	0.0	0.04132639423813603	-0.6195814719527959	0.0	0.05200891656457532	-0.753694398082246	0.0	0.1088842052832155	-0.7648659963823227	0.0	0.105172896606163	-0.7626951604518599	0.0	0.04011323175375998	-0.7718056069209821	0.0	-0.008083234144528375	-0.35726207596037063	0.0	0.013124912868555522	-0.2791650203710264	0.0	0.02068704327251639	-0.32958295376198044	0.0	0.007762221475419738	-0.481810110102933	0.0	0.00011140451321232521	-0.4528630676967017	0.0	0.003053670031114105	-0.5548479467882885	0.0	0.003355018044977247	-0.5744497965061414	0.0	0.006669137336962514	-0.4615467977399585	0.0	0.0030691004897784985	-0.5537030943556268	0.0
6	0.2011764705882353	-0.0007296205717917345	-0.5614332625640154	0.0	0.0007079994860860749	-0.5627673150130962	0.0	0.04259353375137571	-0.6169502733100597	0.0	0.05527495275343107	-0.7547458091359008	0.0	0.11186146872971539	-0.7613732497191499	0.0	0.1037056004892973	-0.7675619192874185	0.0	0.04395619247426239	-0.7744261650971901	0.0	-0.0016604531777788326	-0.560580741997084	0.0	0.03964854447216445	-0.6196234240055005	0.0	0.04994447844339676	-0.7538192956644321	0.0	0.10683959343119444	-0.7650631283751906	0.0	0.10310215610871713	-0.7629056348590728	0.0	0.03795746025287988	-0.7719132877705203	0.0	-0.009647463192761139	-0.35716624725100066	0.0	0.011316912401071404	-0.2791545806705749	0.0	0.01886141756744788	-0.3294387291351367	0.0	0.0067470850108231764	-0.48277538841335704	0.0	-0.0013275755007562	-0.45315829759225956	0.0	0.000833976150558571	-0.5556389887274128	0.0	0.0015875038289493006	-0.5759680711609745	0.0	0.004561079731945674	-0.4614757256976277	0.0	0.0004661850985082476	-0.553883164233686	0.0
7	0.23470588235294118	-0.0020533883996068855	-0.5613316445092448	0.0	-0.00027575291427888864	-0.5627831203194448	0.0	0.04135643510684962	-0.6168125010322211	0.0	0.05468919672710459	-0.7545783483636225	0.0	0.11157094220553795	-0.7610661015006058	0.0	0.10324476571708482	-0.7671144249386982	0.0	0.043906417707583224	-0.7743939077858027	0.0	-0.0031628438515967357	-0.5606376852913335	0.0	0.03821143288225586	-0.619557427163286	0.0	0.04845778217603244	-0.7538311505724197	0.0	0.10534369431246562	-0.7650412620265061	0.0	0.10160566243605178	-0.7628981723943807	0.0	0.03646794688380435	-0.7719576609534694	0.0	-0.011627140559796342	-0.3569767206179913	0.0	0.009084999206510545	-0.27901245335951724	0.0	0.016670220554299956	-0.3292024848226756	0.0	0.005094785735466117	-0.4825183628576574	0.0	-0.003427244132758513	-0.4533554297215648	0.0	-0.001775492097041747	-0.5554140919623799	0.0	-0.0004191033784807552	-0.5751660836922661	0.0	0.0020063222475895878	-0.4613666574828486	0.0	-0.0023551827213206806	-0.553801914372573	0.0
